<?xml version="1.0" encoding="iso-8859-1"?>
<!-- Generator: Adobe Illustrator 18.1.1, SVG Export Plug-In . SVG Version: 6.00 Build 0)  -->
<svg version="1.1" id="Capa_1" xmlns="http://www.w3.org/2000/svg" xmlns:xlink="http://www.w3.org/1999/xlink" x="0px" y="0px"
	 viewBox="0 0 28 28" style="enable-background:new 0 0 28 28;" xml:space="preserve">
<g>
	<g>
		<path style="fill:#010002;" d="M14,0C6.268,0,0,6.268,0,14s6.268,14,14,14s14-6.268,14-14S21.732,0,14,0z M14,26
			C7.373,26,2,20.627,2,14S7.373,2,14,2s12,5.373,12,12S20.627,26,14,26z"/>
		<path style="fill:#010002;" d="M14,10c-2.209,0-4,1.79-4,4s4,11,4,11s4-8.79,4-11S16.209,10,14,10z M14,16c-1.104,0-2-0.896-2-2
			s0.896-2,2-2s2,0.896,2,2S15.104,16,14,16z"/>
	</g>
</g>
<g>
</g>
<g>
</g>
<g>
</g>
<g>
</g>
<g>
</g>
<g>
</g>
<g>
</g>
<g>
</g>
<g>
</g>
<g>
</g>
<g>
</g>
<g>
</g>
<g>
</g>
<g>
</g>
<g>
</g>
</svg>
