<?xml version="1.0" encoding="utf-8"?>
<!-- Generator: Adobe Illustrator 19.2.0, SVG Export Plug-In . SVG Version: 6.00 Build 0)  -->
<!DOCTYPE svg PUBLIC "-//W3C//DTD SVG 1.1//EN" "http://www.w3.org/Graphics/SVG/1.1/DTD/svg11.dtd">
<svg version="1.1" xmlns="http://www.w3.org/2000/svg" xmlns:xlink="http://www.w3.org/1999/xlink" x="0px" y="0px"
	 viewBox="0 0 512 512" enable-background="new 0 0 512 512" xml:space="preserve">
<g id="Ebene_3" display="none">
	<rect x="-2020" y="-2565" display="inline" fill="#4D4D4E" width="5364" height="3336"/>
</g>
<g id="Grid" display="none">
	<g display="inline">
		<g>
			<path fill="#B3B3B3" d="M511,1v510H1V1H511 M512,0H0v512h512V0L512,0z"/>
		</g>
		<line fill="none" stroke="#B3B3B3" stroke-miterlimit="10" x1="6" y1="6" x2="506" y2="506"/>
		<line fill="none" stroke="#B3B3B3" stroke-miterlimit="10" x1="506" y1="6" x2="6" y2="506"/>
		<circle fill="none" stroke="#B3B3B3" stroke-miterlimit="10" cx="256" cy="256" r="250"/>
	</g>
</g>
<g id="Ebene_2">
	<circle fill="#4EB1E5" cx="353.935" cy="183.958" r="21.065"/>
	<circle fill="#4EB1E5" cx="428.935" cy="183.958" r="21.065"/>
	
		<line fill="none" stroke="#003553" stroke-width="17" stroke-linecap="round" stroke-linejoin="round" stroke-miterlimit="10" x1="255.997" y1="87.37" x2="255.997" y2="471.37"/>
	
		<line fill="none" stroke="#003553" stroke-width="17" stroke-linecap="round" stroke-linejoin="round" stroke-miterlimit="10" x1="256.003" y1="331.37" x2="316.874" y2="236.37"/>
	
		<line fill="none" stroke="#003553" stroke-width="17" stroke-linecap="round" stroke-linejoin="round" stroke-miterlimit="10" x1="316.874" y1="236.37" x2="390.997" y2="236.37"/>
	
		<line fill="none" stroke="#003553" stroke-width="17" stroke-linecap="round" stroke-linejoin="round" stroke-miterlimit="10" x1="390.997" y1="236.37" x2="390.997" y2="198.037"/>
	
		<line fill="none" stroke="#003553" stroke-width="17" stroke-linecap="round" stroke-linejoin="round" stroke-miterlimit="10" x1="255.997" y1="361.371" x2="165.871" y2="400.372"/>
	
		<line fill="none" stroke="#003553" stroke-width="17" stroke-linecap="round" stroke-linejoin="round" stroke-miterlimit="10" x1="165.871" y1="400.372" x2="165.871" y2="354.371"/>
	
		<line fill="none" stroke="#4EB1E5" stroke-width="17" stroke-linecap="round" stroke-linejoin="round" stroke-miterlimit="10" x1="124.871" y1="324.368" x2="206.871" y2="324.368"/>
	
		<line fill="none" stroke="#4EB1E5" stroke-width="17" stroke-linecap="round" stroke-linejoin="round" stroke-miterlimit="10" x1="206.871" y1="324.368" x2="206.871" y2="298.368"/>
	
		<line fill="none" stroke="#4EB1E5" stroke-width="17" stroke-linecap="round" stroke-linejoin="round" stroke-miterlimit="10" x1="124.871" y1="324.368" x2="124.871" y2="298.368"/>
	
		<polygon fill="none" stroke="#4EB1E5" stroke-width="17" stroke-linecap="round" stroke-linejoin="round" stroke-miterlimit="10" points="
		184.997,165.621 154.997,182.364 126.692,165.621 126.692,86.624 184.997,86.624 	"/>
	
		<line fill="none" stroke="#003553" stroke-width="17" stroke-linecap="round" stroke-linejoin="round" stroke-miterlimit="10" x1="202.302" y1="118.364" x2="255.997" y2="172.059"/>
</g>
<g id="txt">
</g>
</svg>
